<svg xmlns="http://www.w3.org/2000/svg" viewBox="0 0 154.7 182.88"><defs><style>.cls-1{fill:#4d7abd;}.cls-2{fill:#f5a00d;}</style></defs><title>logo</title><g id="Capa_1" data-name="Capa 1"><path class="cls-1" d="M151.92,52.6l-9.5,9.5a9.49,9.49,0,0,1-13.44,0L96.54,29.66a9.51,9.51,0,0,0-13.44,0L50.65,62.1a9.51,9.51,0,0,0,0,13.44L83.1,108a9.51,9.51,0,0,1,0,13.44l-9.51,9.5a9.49,9.49,0,0,1-13.43,0L23.78,94.55A9.47,9.47,0,0,1,21,87.83v-38a9.47,9.47,0,0,1,2.79-6.72L64.09,2.78A9.51,9.51,0,0,1,70.81,0h38a9.51,9.51,0,0,1,6.72,2.78l36.38,36.38A9.51,9.51,0,0,1,151.92,52.6Z"/><path class="cls-2" d="M2.78,130.28l9.51-9.5a9.49,9.49,0,0,1,13.43,0l32.45,32.44a9.51,9.51,0,0,0,13.44,0l32.44-32.44a9.51,9.51,0,0,0,0-13.44L71.61,74.9a9.51,9.51,0,0,1,0-13.44l9.5-9.5a9.49,9.49,0,0,1,13.44,0l36.38,36.38a9.48,9.48,0,0,1,2.78,6.71v38a9.49,9.49,0,0,1-2.78,6.72L90.61,180.1a9.51,9.51,0,0,1-6.72,2.78h-38a9.52,9.52,0,0,1-6.72-2.78L2.78,143.72A9.51,9.51,0,0,1,2.78,130.28Z"/></g></svg>